<svg xmlns="http://www.w3.org/2000/svg" width="600" height="150" viewBox="0 0 600 150"><defs><style>.a{fill:#fff;}.b{fill:#50b5c6;}.c{fill:#f49e0d;}.d{fill:#9d5b87;}.e{fill:#c0ce43;}.f{fill:#e37164;}</style></defs><title>logo</title><path class="a" d="M599,75A75,75,0,0,1,524,0H76A75,75,0,0,1,1,75a75,75,0,0,1,75,75H524A75,75,0,0,1,599,75Z"/><rect class="b" x="100" y="72" width="72" height="58"/><rect class="c" x="182" y="72" width="72" height="58"/><rect class="d" x="264" y="72" width="72" height="58"/><rect class="e" x="346" y="72" width="72" height="58"/><rect class="f" x="428" y="72" width="72" height="58"/><path d="M132.865,53.526c2.852-2.344,4.452-5.8,4.756-10.276l.029-.416H136l0,.386a11.729,11.729,0,0,1-11.572,11.55,6.3,6.3,0,0,1-6.011-3.444c-1.286-2.362-1.938-6.265-1.938-11.6V34.587c0-4.508.5-7.946,1.482-10.219.95-2.2,2.286-3.264,4.085-3.264,2.456,0,5,1.4,7.568,4.169a32.138,32.138,0,0,1,6.408,11.255l.092.26h1.409V19.129l-6.445,5.214a16.319,16.319,0,0,0-5.052-4.015,14.251,14.251,0,0,0-6.313-1.393,22.055,22.055,0,0,0-8.867,1.8,19.986,19.986,0,0,0-7.084,5.162,18.757,18.757,0,0,0-3.472,5.676,18.272,18.272,0,0,0,1.446,15.954,18.916,18.916,0,0,0,7.419,6.815,22.02,22.02,0,0,0,5.483,2.022,28.244,28.244,0,0,0,6.29.68C126.011,57.039,130.027,55.857,132.865,53.526Z"/><path d="M175.92,24.6a20.641,20.641,0,0,0-6.537-4.2,20.489,20.489,0,0,0-15.229,0,20.592,20.592,0,0,0-6.563,4.2A19.3,19.3,0,0,0,143.2,30.78a17.459,17.459,0,0,0-.013,14.4,18.7,18.7,0,0,0,4.357,6.145,20.9,20.9,0,0,0,6.574,4.235,20.506,20.506,0,0,0,15.268.012,20.611,20.611,0,0,0,6.536-4.2,19.113,19.113,0,0,0,4.42-6.181,17.391,17.391,0,0,0,.013-14.374A19.374,19.374,0,0,0,175.92,24.6ZM164.3,51.86a4.634,4.634,0,0,1-.591,2.7,2.252,2.252,0,0,1-1.924.728,2.291,2.291,0,0,1-1.938-.73,4.569,4.569,0,0,1-.6-2.7V24.115a4.686,4.686,0,0,1,.6-2.732,2.869,2.869,0,0,1,3.856-.013,4.751,4.751,0,0,1,.593,2.745Z"/><path d="M204.112,57.039a20.323,20.323,0,0,0,7.6-1.468,20.645,20.645,0,0,0,6.536-4.2,19.113,19.113,0,0,0,4.42-6.181,17.4,17.4,0,0,0,.013-14.374,19.374,19.374,0,0,0-4.432-6.218,20.663,20.663,0,0,0-6.537-4.2,20.489,20.489,0,0,0-15.229,0,20.586,20.586,0,0,0-6.564,4.2,19.286,19.286,0,0,0-4.393,6.179,17.465,17.465,0,0,0-.014,14.4,18.7,18.7,0,0,0,4.357,6.145,20.89,20.89,0,0,0,6.575,4.235A20.4,20.4,0,0,0,204.112,57.039Zm-2.539-32.924a4.679,4.679,0,0,1,.6-2.732,2.867,2.867,0,0,1,3.856-.012,4.75,4.75,0,0,1,.592,2.744V51.86a4.641,4.641,0,0,1-.59,2.7,2.254,2.254,0,0,1-1.924.728,2.288,2.288,0,0,1-1.938-.73,4.565,4.565,0,0,1-.6-2.7Z"/><path d="M251.235,56.412h64.572V39.776h-1.261l-.1.226a31.473,31.473,0,0,1-7.706,10.664c-3.048,2.654-6.03,4-8.864,4h-1.794V39.04h1.2a5.131,5.131,0,0,1,4.275,1.841,10.471,10.471,0,0,1,1.788,5.862l.025.363h1.648V29.2h-1.639l-.033.354a10.9,10.9,0,0,1-1.862,5.833,5.053,5.053,0,0,1-4.2,1.8h-1.2V21.247h1.843c2.694,0,5.636,1.217,8.746,3.616a28.916,28.916,0,0,1,7.785,9.381l.11.206h1.245V19.5H274.824v1.747h4.468V54.666h-5.223L260.246,29l2.8-2.777a20.2,20.2,0,0,1,4.782-3.738,9.476,9.476,0,0,1,4.445-1.233h.538V19.5h-17.8v1.747h1.208a5.9,5.9,0,0,1,3.3.751,2.374,2.374,0,0,1,1.022,2.111,4.386,4.386,0,0,1-.644,2.164,12.32,12.32,0,0,1-2.141,2.593l-11.375,11V21.247h4.987V19.5H225.178v1.747h4.467V54.666h-4.467v1.746h24.5V54.666h-3.3V42.576l1.872-1.638,6.956,13.728h-3.975Z"/><path d="M363.856,55.229a6.931,6.931,0,0,0,2.756-5.777l.014-.4h-1.613l-.022.367a6.4,6.4,0,0,1-.516,2.451c-.315.611-.654.682-.883.682-.4,0-.684-.887-.751-2.371a24.3,24.3,0,0,0-.506-4.347,8.813,8.813,0,0,0-3.707-5.459,13.854,13.854,0,0,0-5.591-2.164,13,13,0,0,0,6.714-2.384,8.152,8.152,0,0,0,3.065-6.784,8.056,8.056,0,0,0-3.656-7.022c-2.381-1.627-5.782-2.451-10.109-2.451h-29.3v1.747h4.468V54.733h-4.468v1.746H344.4V54.733h-3.9v-16.1h1.222c1.589,0,2.636.371,3.112,1.1.35.539.767,2.272.767,7.469,0,3.587.807,6.154,2.395,7.631s4.281,2.213,8.021,2.213C359.515,57.05,362.149,56.438,363.856,55.229ZM346.576,31.4c0,2.221-.337,3.719-1,4.453s-1.965,1.088-3.893,1.088h-1.173V21.314h1.173c1.928,0,3.238.367,3.893,1.089s1,2.232,1,4.453Z"/><path d="M395.105,21.247h1.01a4.338,4.338,0,0,1,2.639.637,2.343,2.343,0,0,1,.768,1.977A6.856,6.856,0,0,1,399,26.2a15.184,15.184,0,0,1-1.5,2.877l-4.482,6.791-6.864-14.625h3.9V19.5H363.737v1.747H367.5l9.263,19.725V54.666h-4.84v1.746h26.391V54.666H393.5V38.4l5.867-8.937a38.693,38.693,0,0,1,4.919-6.409,5.342,5.342,0,0,1,3.466-1.8h.588V19.5H395.105Z"/><polygon points="459.358 54.666 454.892 54.666 454.892 21.247 459.358 21.247 459.358 19.5 433.166 19.5 433.166 21.247 437.634 21.247 437.634 54.666 433.166 54.666 433.166 56.412 459.358 56.412 459.358 54.666"/><path d="M492.027,19.5v1.747h.489c2.042,0,3.44.647,4.273,1.976.858,1.372,1.293,3.858,1.293,7.388v9.307L484.81,19.5H462.585l.043,1.741.374.006a7.824,7.824,0,0,1,3.872.74,2.515,2.515,0,0,1,.956,2.27V45.3c0,3.532-.431,6.018-1.28,7.389-.826,1.328-2.219,1.975-4.26,1.975h-.49v1.746h13.983V54.666h-.49c-2.06,0-3.47-.651-4.31-1.99-.867-1.377-1.305-3.858-1.305-7.374v-19.1L489.1,56.412h10.828v-25.8c0-3.515.439-6,1.3-7.374.842-1.339,2.252-1.99,4.311-1.99h.49V19.5Z"/><path d="M153.626,105.226a11.731,11.731,0,0,1-11.572,11.551,6.3,6.3,0,0,1-6.011-3.445c-1.286-2.362-1.938-6.266-1.938-11.6V96.594c0-4.507.5-7.946,1.482-10.218.95-2.2,2.287-3.265,4.085-3.265,2.456,0,5,1.4,7.568,4.169a32.17,32.17,0,0,1,6.409,11.255l.091.26h1.41V81.136L148.7,86.35a16.326,16.326,0,0,0-5.052-4.015,14.232,14.232,0,0,0-6.313-1.393,22.067,22.067,0,0,0-8.867,1.794,20.011,20.011,0,0,0-7.084,5.162,18.753,18.753,0,0,0-3.472,5.677,18.284,18.284,0,0,0,1.446,15.955,18.92,18.92,0,0,0,7.419,6.814,21.959,21.959,0,0,0,5.483,2.021,28.225,28.225,0,0,0,6.29.68c5.083,0,9.1-1.182,11.937-3.512s4.453-5.8,4.757-10.276l.028-.417H153.63Z"/><path d="M223.544,81.506h-8.87l-9.648,23.559c-.134.3-.325.749-.576,1.351-2.8,6.806-5.5,10.256-8.028,10.256h-.489v1.747h12.741v-1.747h-1.01a3.856,3.856,0,0,1-2.666-.8,3.106,3.106,0,0,1-.865-2.4,7.931,7.931,0,0,1,.238-1.749,11.268,11.268,0,0,1,.65-1.971l1.165-2.765h9.165l3.308,9.693h-4.113v1.747h25.521v-1.747H236.8Zm-16.617,23.775,4.255-10.531,3.606,10.531Z"/><path d="M322.7,111.423a6.382,6.382,0,0,1-.515,2.45c-.316.611-.654.682-.882.682-.4,0-.685-.886-.753-2.371a24.266,24.266,0,0,0-.5-4.347,8.823,8.823,0,0,0-3.707-5.459,13.887,13.887,0,0,0-5.59-2.164,13.012,13.012,0,0,0,6.714-2.384,8.15,8.15,0,0,0,3.064-6.783,8.052,8.052,0,0,0-3.657-7.022c-2.379-1.626-5.78-2.451-10.109-2.451h-29.3v1.747h4.467v33.418h-4.467v1.748h24.653v-1.748h-3.9v-16.1h1.223c1.589,0,2.636.371,3.111,1.1.351.54.768,2.273.768,7.469,0,3.588.807,6.155,2.395,7.63s4.279,2.215,8.02,2.215c3.492,0,6.128-.614,7.833-1.823a6.927,6.927,0,0,0,2.756-5.776l.013-.4h-1.614ZM304.289,93.4c0,2.222-.337,3.72-1,4.453s-1.966,1.089-3.894,1.089h-1.173V83.321h1.173c1.927,0,3.238.366,3.894,1.088s1,2.232,1,4.454Z"/><path d="M401.113,101.421a22.661,22.661,0,0,1-2.585,5,39.126,39.126,0,0,1-4.225,5.133,20.868,20.868,0,0,1-5.045,4.068,10.365,10.365,0,0,1-4.7,1.05h-1.8V83.255H388.5V81.506H361.508v1.749h4.467v33.417h-4.467v1.747h40.984V101.162h-1.285Z"/><path d="M469.543,81.506h-8.869l-9.648,23.56q-.2.448-.576,1.35c-2.8,6.806-5.5,10.256-8.028,10.256h-.489v1.747h12.741v-1.747h-1.01a3.853,3.853,0,0,1-2.666-.8,3.065,3.065,0,0,1-.865-2.4,7.917,7.917,0,0,1,.238-1.75,11.452,11.452,0,0,1,.649-1.97l1.165-2.765h9.166l3.307,9.693h-4.113v1.747h25.522v-1.747H482.8Zm-16.617,23.775,4.257-10.531,3.605,10.531Z"/></svg>