<svg xmlns="http://www.w3.org/2000/svg" xmlns:xlink="http://www.w3.org/1999/xlink" width="12" height="12" viewBox="0 0 12 12"><defs><style>.a,.c{fill:none;}.b{clip-path:url(#a);}.c{stroke:#fff;stroke-miterlimit:10;stroke-width:2px;}.d{fill:#fff;}</style><clipPath id="a"><rect class="a" x="-65" y="-192" width="100" height="100"/></clipPath></defs><title>d-stripes-1</title><g class="b"><path class="c" d="M-65.5-1.5c27,0,27,8,51,8,26,0,27-8,50-8"/><path class="c" d="M-65.5-6.5c27,0,27,8,51,8,26,0,27-8,50-8"/></g><polygon class="d" points="12 0 0 12 0 12 1 13 13 1 12 0"/><polygon class="d" points="10 -2 -2 10 -2 10 -1 11 11 -1 10 -2"/><polygon class="d" points="8 -4 -4 8 -4 8 -3 9 9 -3 8 -4"/><polygon class="d" points="6 -6 -6 6 -6 6 -5 7 7 -5 6 -6"/><polygon class="d" points="14 2 2 14 2 14 3 15 15 3 14 2"/><polygon class="d" points="16 4 4 16 4 16 5 17 17 5 16 4"/></svg>