<svg xmlns="http://www.w3.org/2000/svg" xmlns:xlink="http://www.w3.org/1999/xlink" width="12" height="12" viewBox="0 0 12 12"><defs><style>.a,.c{fill:none;}.b{clip-path:url(#a);}.c{stroke:#fff;stroke-miterlimit:10;stroke-width:2px;}.d{fill:#fff;}</style><clipPath id="a"><rect class="a" x="-92" y="-192" width="100" height="100"/></clipPath></defs><title>d-stripes-2</title><g class="b"><path class="c" d="M-92.5-1.5c27,0,27,8,51,8,26,0,27-8,50-8"/><path class="c" d="M-92.5-6.5c27,0,27,8,51,8,26,0,27-8,50-8"/></g><polygon class="d" points="12 0 0 12 0 12 1 13 13 1 12 0"/><polygon class="d" points="6 -6 -6 6 -6 6 -5 7 7 -5 6 -6"/><polygon class="d" points="14 4 2 16 2 16 3 17 15 5 14 4"/><polygon class="d" points="8 -2 -4 10 -4 10 -3 11 9 -1 8 -2"/></svg>