<svg xmlns="http://www.w3.org/2000/svg" xmlns:xlink="http://www.w3.org/1999/xlink" width="14" height="14" viewBox="0 0 14 14"><defs><style>.a,.c{fill:none;}.b{clip-path:url(#a);}.c{stroke:#fff;stroke-miterlimit:10;stroke-width:2px;}.d{fill:#fff;}</style><clipPath id="a"><rect class="a" x="-40" y="-179" width="100" height="100"/></clipPath></defs><title>dots</title><g class="b"><path class="c" d="M-40.5,11.5c27,0,27,8,51,8,26,0,27-8,50-8"/><path class="c" d="M-40.5,6.5c27,0,27,8,51,8,26,0,27-8,50-8"/><path class="c" d="M-40.5,1.5c27,0,27,8,51,8,26,0,27-8,50-8"/><path class="c" d="M-40.5-3.5c27,0,27,8,51,8,26,0,27-8,50-8"/><path class="c" d="M-40.5-8.5c27,0,27,8,51,8,26,0,27-8,50-8"/></g><circle class="d" cx="4" cy="11" r="2"/><circle class="d" cx="11" cy="4" r="2"/></svg>