<svg xmlns="http://www.w3.org/2000/svg" xmlns:xlink="http://www.w3.org/1999/xlink" width="120" height="120" viewBox="0 0 120 120"><defs><style>.a,.c,.e{fill:none;}.b{clip-path:url(#a);}.c,.e{stroke:#fff;stroke-miterlimit:10;}.d{clip-path:url(#b);}.e{stroke-width:1.2px;}.f{clip-path:url(#c);}</style><clipPath id="a"><rect class="a" x="10" y="-168" width="100" height="100"/></clipPath><clipPath id="b"><rect class="a" width="120" height="120"/></clipPath><clipPath id="c"><rect class="a" width="120" height="120" transform="translate(0 120) rotate(-90)"/></clipPath></defs><title>wave-grid-3</title><g class="b"><path class="c" d="M9.5,22.5c27,0,27,8,51,8,26,0,27-8,50-8"/><path class="c" d="M9.5,17.5c27,0,27,8,51,8,26,0,27-8,50-8"/><path class="c" d="M9.5,12.5c27,0,27,8,51,8,26,0,27-8,50-8"/><path class="c" d="M9.5,7.5c27,0,27,8,51,8,26,0,27-8,50-8"/><path class="c" d="M9.5,2.5c27,0,27,8,51,8,26,0,27-8,50-8"/><path class="c" d="M9.5-2.5c27,0,27,8,51,8,26,0,27-8,50-8"/><path class="c" d="M9.5-7.5c27,0,27,8,51,8,26,0,27-8,50-8"/></g><g class="d"><path class="e" d="M-.6,114.6c32.4,0,32.4,9.6,61.2,9.6,31.2,0,32.4-9.6,60-9.6"/><path class="e" d="M-.6,108.6c32.4,0,32.4,9.6,61.2,9.6,31.2,0,32.4-9.6,60-9.6"/><path class="e" d="M-.6,102.6c32.4,0,32.4,9.6,61.2,9.6,31.2,0,32.4-9.6,60-9.6"/><path class="e" d="M-.6,96.6c32.4,0,32.4,9.6,61.2,9.6,31.2,0,32.4-9.6,60-9.6"/><path class="e" d="M-.6,90.6c32.4,0,32.4,9.6,61.2,9.6,31.2,0,32.4-9.6,60-9.6"/><path class="e" d="M-.6,84.6c32.4,0,32.4,9.6,61.2,9.6,31.2,0,32.4-9.6,60-9.6"/><path class="e" d="M-.6,78.6c32.4,0,32.4,9.6,61.2,9.6,31.2,0,32.4-9.6,60-9.6"/><path class="e" d="M-.6,72.6c32.4,0,32.4,9.6,61.2,9.6,31.2,0,32.4-9.6,60-9.6"/><path class="e" d="M-.6,66.6c32.4,0,32.4,9.6,61.2,9.6,31.2,0,32.4-9.6,60-9.6"/><path class="e" d="M-.6,60.6c32.4,0,32.4,9.6,61.2,9.6,31.2,0,32.4-9.6,60-9.6"/><path class="e" d="M-.6,54.6c32.4,0,32.4,9.6,61.2,9.6,31.2,0,32.4-9.6,60-9.6"/><path class="e" d="M-.6,48.6c32.4,0,32.4,9.6,61.2,9.6,31.2,0,32.4-9.6,60-9.6"/><path class="e" d="M-.6,42.6c32.4,0,32.4,9.6,61.2,9.6,31.2,0,32.4-9.6,60-9.6"/><path class="e" d="M-.6,36.6c32.4,0,32.4,9.6,61.2,9.6,31.2,0,32.4-9.6,60-9.6"/><path class="e" d="M-.6,30.6c32.4,0,32.4,9.6,61.2,9.6,31.2,0,32.4-9.6,60-9.6"/><path class="e" d="M-.6,24.6c32.4,0,32.4,9.6,61.2,9.6,31.2,0,32.4-9.6,60-9.6"/><path class="e" d="M-.6,18.6c32.4,0,32.4,9.6,61.2,9.6,31.2,0,32.4-9.6,60-9.6"/><path class="e" d="M-.6,12.6c32.4,0,32.4,9.6,61.2,9.6,31.2,0,32.4-9.6,60-9.6"/><path class="e" d="M-.6,6.6c32.4,0,32.4,9.6,61.2,9.6,31.2,0,32.4-9.6,60-9.6"/><path class="e" d="M-.6.6c32.4,0,32.4,9.6,61.2,9.6,31.2,0,32.4-9.6,60-9.6"/><path class="e" d="M-.6-5.4c32.4,0,32.4,9.6,61.2,9.6,31.2,0,32.4-9.6,60-9.6"/></g><g class="f"><path class="e" d="M114.6,120.6c0-32.4,9.6-32.4,9.6-61.2,0-31.2-9.6-32.4-9.6-60"/><path class="e" d="M108.6,120.6c0-32.4,9.6-32.4,9.6-61.2,0-31.2-9.6-32.4-9.6-60"/><path class="e" d="M102.6,120.6c0-32.4,9.6-32.4,9.6-61.2,0-31.2-9.6-32.4-9.6-60"/><path class="e" d="M96.6,120.6c0-32.4,9.6-32.4,9.6-61.2,0-31.2-9.6-32.4-9.6-60"/><path class="e" d="M90.6,120.6c0-32.4,9.6-32.4,9.6-61.2,0-31.2-9.6-32.4-9.6-60"/><path class="e" d="M84.6,120.6c0-32.4,9.6-32.4,9.6-61.2,0-31.2-9.6-32.4-9.6-60"/><path class="e" d="M78.6,120.6c0-32.4,9.6-32.4,9.6-61.2,0-31.2-9.6-32.4-9.6-60"/><path class="e" d="M72.6,120.6c0-32.4,9.6-32.4,9.6-61.2,0-31.2-9.6-32.4-9.6-60"/><path class="e" d="M66.6,120.6c0-32.4,9.6-32.4,9.6-61.2,0-31.2-9.6-32.4-9.6-60"/><path class="e" d="M60.6,120.6c0-32.4,9.6-32.4,9.6-61.2,0-31.2-9.6-32.4-9.6-60"/><path class="e" d="M54.6,120.6c0-32.4,9.6-32.4,9.6-61.2,0-31.2-9.6-32.4-9.6-60"/><path class="e" d="M48.6,120.6c0-32.4,9.6-32.4,9.6-61.2,0-31.2-9.6-32.4-9.6-60"/><path class="e" d="M42.6,120.6c0-32.4,9.6-32.4,9.6-61.2,0-31.2-9.6-32.4-9.6-60"/><path class="e" d="M36.6,120.6c0-32.4,9.6-32.4,9.6-61.2,0-31.2-9.6-32.4-9.6-60"/><path class="e" d="M30.6,120.6c0-32.4,9.6-32.4,9.6-61.2,0-31.2-9.6-32.4-9.6-60"/><path class="e" d="M24.6,120.6c0-32.4,9.6-32.4,9.6-61.2,0-31.2-9.6-32.4-9.6-60"/><path class="e" d="M18.6,120.6c0-32.4,9.6-32.4,9.6-61.2,0-31.2-9.6-32.4-9.6-60"/><path class="e" d="M12.6,120.6c0-32.4,9.6-32.4,9.6-61.2,0-31.2-9.6-32.4-9.6-60"/><path class="e" d="M6.6,120.6c0-32.4,9.6-32.4,9.6-61.2,0-31.2-9.6-32.4-9.6-60"/><path class="e" d="M.6,120.6c0-32.4,9.6-32.4,9.6-61.2C10.2,28.2.6,27,.6-.6"/><path class="e" d="M-5.4,120.6c0-32.4,9.6-32.4,9.6-61.2C4.2,28.2-5.4,27-5.4-.6"/></g></svg>