<svg xmlns="http://www.w3.org/2000/svg" width="24" height="24" viewBox="0 0 24 24"><defs><style>.a{fill:#fff;}</style></defs><title>waves-4</title><path class="a" d="M18,24a9.484,9.484,0,0,1,6-2V20c-6,0-6,4-12,4Z"/><path class="a" d="M12,24c-6,0-6-4-12-4v2a9.484,9.484,0,0,1,6,2Z"/><path class="a" d="M0,14v2c6,0,6,4,12,4s6-4,12-4V14c-6,0-6,4-12,4S6,14,0,14Z"/><path class="a" d="M0,2V4C6,4,6,8,12,8s6-4,12-4V2c-6,0-6,4-12,4S6,2,0,2Z"/><path class="a" d="M12,2a9.484,9.484,0,0,0,6-2H6A9.484,9.484,0,0,0,12,2Z"/><path class="a" d="M0,8v2c6,0,6,4,12,4s6-4,12-4V8c-6,0-6,4-12,4S6,8,0,8Z"/></svg>