<svg xmlns="http://www.w3.org/2000/svg" width="24" height="24" viewBox="0 0 24 24"><defs><style>.a{fill:#fff;}</style></defs><title>waves-6</title><path class="a" d="M24,6a9.484,9.484,0,0,1-2-6H20c0,6,4,6,4,12Z"/><path class="a" d="M24,12c0,6-4,6-4,12h2a9.484,9.484,0,0,1,2-6Z"/><path class="a" d="M14,24h2c0-6,4-6,4-12S16,6,16,0H14c0,6,4,6,4,12S14,18,14,24Z"/><path class="a" d="M2,24H4c0-6,4-6,4-12S4,6,4,0H2C2,6,6,6,6,12S2,18,2,24Z"/><path class="a" d="M2,12A9.484,9.484,0,0,0,0,6V18A9.484,9.484,0,0,0,2,12Z"/><path class="a" d="M8,24h2c0-6,4-6,4-12S10,6,10,0H8c0,6,4,6,4,12S8,18,8,24Z"/></svg>