<svg xmlns="http://www.w3.org/2000/svg" xmlns:xlink="http://www.w3.org/1999/xlink" width="100" height="100" viewBox="0 0 100 100"><defs><style>.a,.c{fill:none;}.b{clip-path:url(#a);}.c{stroke:#fff;stroke-miterlimit:10;stroke-width:2px;}.d{clip-path:url(#b);}</style><clipPath id="a"><rect class="a" width="100" height="100"/></clipPath><clipPath id="b"><rect class="a" width="100" height="100" transform="translate(0 100) rotate(-90)"/></clipPath></defs><title>wave-grid-2</title><g class="b"><path class="c" d="M-.5,100.5c27,0,27,8,51,8,26,0,27-8,50-8"/><path class="c" d="M-.5,95.5c27,0,27,8,51,8,26,0,27-8,50-8"/><path class="c" d="M-.5,90.5c27,0,27,8,51,8,26,0,27-8,50-8"/><path class="c" d="M-.5,85.5c27,0,27,8,51,8,26,0,27-8,50-8"/><path class="c" d="M-.5,80.5c27,0,27,8,51,8,26,0,27-8,50-8"/><path class="c" d="M-.5,75.5c27,0,27,8,51,8,26,0,27-8,50-8"/><path class="c" d="M-.5,70.5c27,0,27,8,51,8,26,0,27-8,50-8"/><path class="c" d="M-.5,65.5c27,0,27,8,51,8,26,0,27-8,50-8"/><path class="c" d="M-.5,60.5c27,0,27,8,51,8,26,0,27-8,50-8"/><path class="c" d="M-.5,55.5c27,0,27,8,51,8,26,0,27-8,50-8"/><path class="c" d="M-.5,50.5c27,0,27,8,51,8,26,0,27-8,50-8"/><path class="c" d="M-.5,45.5c27,0,27,8,51,8,26,0,27-8,50-8"/><path class="c" d="M-.5,40.5c27,0,27,8,51,8,26,0,27-8,50-8"/><path class="c" d="M-.5,35.5c27,0,27,8,51,8,26,0,27-8,50-8"/><path class="c" d="M-.5,30.5c27,0,27,8,51,8,26,0,27-8,50-8"/><path class="c" d="M-.5,25.5c27,0,27,8,51,8,26,0,27-8,50-8"/><path class="c" d="M-.5,20.5c27,0,27,8,51,8,26,0,27-8,50-8"/><path class="c" d="M-.5,15.5c27,0,27,8,51,8,26,0,27-8,50-8"/><path class="c" d="M-.5,10.5c27,0,27,8,51,8,26,0,27-8,50-8"/><path class="c" d="M-.5,5.5c27,0,27,8,51,8,26,0,27-8,50-8"/><path class="c" d="M-.5.5c27,0,27,8,51,8,26,0,27-8,50-8"/><path class="c" d="M-.5-4.5c27,0,27,8,51,8,26,0,27-8,50-8"/></g><g class="d"><path class="c" d="M100.5,100.5c0-27,8-27,8-51,0-26-8-27-8-50"/><path class="c" d="M95.5,100.5c0-27,8-27,8-51,0-26-8-27-8-50"/><path class="c" d="M90.5,100.5c0-27,8-27,8-51,0-26-8-27-8-50"/><path class="c" d="M85.5,100.5c0-27,8-27,8-51,0-26-8-27-8-50"/><path class="c" d="M80.5,100.5c0-27,8-27,8-51,0-26-8-27-8-50"/><path class="c" d="M75.5,100.5c0-27,8-27,8-51,0-26-8-27-8-50"/><path class="c" d="M70.5,100.5c0-27,8-27,8-51,0-26-8-27-8-50"/><path class="c" d="M65.5,100.5c0-27,8-27,8-51,0-26-8-27-8-50"/><path class="c" d="M60.5,100.5c0-27,8-27,8-51,0-26-8-27-8-50"/><path class="c" d="M55.5,100.5c0-27,8-27,8-51,0-26-8-27-8-50"/><path class="c" d="M50.5,100.5c0-27,8-27,8-51,0-26-8-27-8-50"/><path class="c" d="M45.5,100.5c0-27,8-27,8-51,0-26-8-27-8-50"/><path class="c" d="M40.5,100.5c0-27,8-27,8-51,0-26-8-27-8-50"/><path class="c" d="M35.5,100.5c0-27,8-27,8-51,0-26-8-27-8-50"/><path class="c" d="M30.5,100.5c0-27,8-27,8-51,0-26-8-27-8-50"/><path class="c" d="M25.5,100.5c0-27,8-27,8-51,0-26-8-27-8-50"/><path class="c" d="M20.5,100.5c0-27,8-27,8-51,0-26-8-27-8-50"/><path class="c" d="M15.5,100.5c0-27,8-27,8-51,0-26-8-27-8-50"/><path class="c" d="M10.5,100.5c0-27,8-27,8-51,0-26-8-27-8-50"/><path class="c" d="M5.5,100.5c0-27,8-27,8-51,0-26-8-27-8-50"/><path class="c" d="M.5,100.5c0-27,8-27,8-51,0-26-8-27-8-50"/><path class="c" d="M-4.5,100.5c0-27,8-27,8-51,0-26-8-27-8-50"/></g></svg>