<svg xmlns="http://www.w3.org/2000/svg" width="100" height="100" viewBox="0 0 100 100"><defs><style>.a{fill:none;stroke:#fff;stroke-miterlimit:10;stroke-width:2px;}</style></defs><title>waves</title><path class="a" d="M-.5,100.5c27,0,27,8,51,8,26,0,27-8,50-8"/><path class="a" d="M-.5,95.5c27,0,27,8,51,8,26,0,27-8,50-8"/><path class="a" d="M-.5,90.5c27,0,27,8,51,8,26,0,27-8,50-8"/><path class="a" d="M-.5,85.5c27,0,27,8,51,8,26,0,27-8,50-8"/><path class="a" d="M-.5,80.5c27,0,27,8,51,8,26,0,27-8,50-8"/><path class="a" d="M-.5,75.5c27,0,27,8,51,8,26,0,27-8,50-8"/><path class="a" d="M-.5,70.5c27,0,27,8,51,8,26,0,27-8,50-8"/><path class="a" d="M-.5,65.5c27,0,27,8,51,8,26,0,27-8,50-8"/><path class="a" d="M-.5,60.5c27,0,27,8,51,8,26,0,27-8,50-8"/><path class="a" d="M-.5,55.5c27,0,27,8,51,8,26,0,27-8,50-8"/><path class="a" d="M-.5,50.5c27,0,27,8,51,8,26,0,27-8,50-8"/><path class="a" d="M-.5,45.5c27,0,27,8,51,8,26,0,27-8,50-8"/><path class="a" d="M-.5,40.5c27,0,27,8,51,8,26,0,27-8,50-8"/><path class="a" d="M-.5,35.5c27,0,27,8,51,8,26,0,27-8,50-8"/><path class="a" d="M-.5,30.5c27,0,27,8,51,8,26,0,27-8,50-8"/><path class="a" d="M-.5,25.5c27,0,27,8,51,8,26,0,27-8,50-8"/><path class="a" d="M-.5,20.5c27,0,27,8,51,8,26,0,27-8,50-8"/><path class="a" d="M-.5,15.5c27,0,27,8,51,8,26,0,27-8,50-8"/><path class="a" d="M-.5,10.5c27,0,27,8,51,8,26,0,27-8,50-8"/><path class="a" d="M-.5,5.5c27,0,27,8,51,8,26,0,27-8,50-8"/><path class="a" d="M-.5.5c27,0,27,8,51,8,26,0,27-8,50-8"/><path class="a" d="M-.5-4.5c27,0,27,8,51,8,26,0,27-8,50-8"/></svg>