<svg xmlns="http://www.w3.org/2000/svg" width="24" height="24" viewBox="0 0 24 24"><defs><style>.a{fill:#fff;}</style></defs><title>waves-7</title><path class="a" d="M24,6a9.484,9.484,0,0,1-2-6H20c0,6,4,6,4,12Z"/><path class="a" d="M24,12c0,6-4,6-4,12h2a9.484,9.484,0,0,1,2-6Z"/><path class="a" d="M16,24h2c0-6,4-6,4-12S18,6,18,0H16c0,6,4,6,4,12S16,18,16,24Z"/><path class="a" d="M0,24H2c0-6,4-6,4-12S2,6,2,0H0C0,6,4,6,4,12S0,18,0,24Z"/><path class="a" d="M2,12A9.484,9.484,0,0,0,0,6V18A9.484,9.484,0,0,0,2,12Z"/><path class="a" d="M12,24h2c0-6,4-6,4-12S14,6,14,0H12c0,6,4,6,4,12S12,18,12,24Z"/><path class="a" d="M8,24h2c0-6,4-6,4-12S10,6,10,0H8c0,6,4,6,4,12S8,18,8,24Z"/><path class="a" d="M4,24H6c0-6,4-6,4-12S6,6,6,0H4C4,6,8,6,8,12S4,18,4,24Z"/></svg>