<svg xmlns="http://www.w3.org/2000/svg" width="24" height="24" viewBox="0 0 24 24"><defs><style>.a{fill:#fff;}</style></defs><title>waves-5</title><path class="a" d="M18,24a9.484,9.484,0,0,1,6-2V20c-6,0-6,4-12,4Z"/><path class="a" d="M12,24c-6,0-6-4-12-4v2a9.484,9.484,0,0,1,6,2Z"/><path class="a" d="M0,16v2c6,0,6,4,12,4s6-4,12-4V16c-6,0-6,4-12,4S6,16,0,16Z"/><path class="a" d="M0,0V2C6,2,6,6,12,6s6-4,12-4V0c-6,0-6,4-12,4S6,0,0,0Z"/><path class="a" d="M12,2a9.484,9.484,0,0,0,6-2H6A9.484,9.484,0,0,0,12,2Z"/><path class="a" d="M0,12v2c6,0,6,4,12,4s6-4,12-4V12c-6,0-6,4-12,4S6,12,0,12Z"/><path class="a" d="M0,8v2c6,0,6,4,12,4s6-4,12-4V8c-6,0-6,4-12,4S6,8,0,8Z"/><path class="a" d="M0,4V6c6,0,6,4,12,4s6-4,12-4V4c-6,0-6,4-12,4S6,4,0,4Z"/></svg>